<svg xmlns="http://www.w3.org/2000/svg" xmlns:xlink="http://www.w3.org/1999/xlink" viewBox="0 0 137.3 40.69"><defs><style>.a{fill:url(#a);}.b{fill:url(#b);}</style><linearGradient id="a" x1="1101.24" y1="1185.48" x2="1122.12" y2="1178.74" gradientTransform="matrix(0.99, 0.14, -0.14, 0.99, 182.73, -315.06)" gradientUnits="userSpaceOnUse"><stop offset="0.1" stop-color="#0b4496"/><stop offset="0.96" stop-color="#27aae1"/></linearGradient><linearGradient id="b" x1="1099.26" y1="990.05" x2="1100.25" y2="1027.03" gradientUnits="userSpaceOnUse"><stop offset="0" stop-color="#1c75bc"/><stop offset="0.29" stop-color="#27aae1"/><stop offset="0.99" stop-color="#08bff7"/></linearGradient></defs><title>logo-bookwave</title><path d="M1136.7,1008.29a3,3,0,0,1,.59,1.87,2.83,2.83,0,0,1-1.33,2.5,7,7,0,0,1-3.86.88h-6.92v-12.29h6.57a6.51,6.51,0,0,1,3.71.88,2.73,2.73,0,0,1,1.26,2.34,2.88,2.88,0,0,1-.43,1.54,3.11,3.11,0,0,1-1.28,1.11A3.72,3.72,0,0,1,1136.7,1008.29Zm-7.45-4.14V1006h1.94c.9,0,1.35-.31,1.35-.92s-.45-.91-1.35-.91Zm3.87,5.53c0-.64-.46-1-1.37-1h-2.5v1.93h2.5C1132.66,1010.65,1133.12,1010.33,1133.12,1009.68Z" transform="translate(-1082.95 -985)"/><path d="M1140.41,1013.08a5,5,0,0,1-2-1.77,5,5,0,0,1,0-5.15,4.87,4.87,0,0,1,2-1.76,6.8,6.8,0,0,1,5.76,0,4.78,4.78,0,0,1,2,1.76,5,5,0,0,1,0,5.15,4.87,4.87,0,0,1-2,1.77,6.8,6.8,0,0,1-5.76,0Zm4-3a2.06,2.06,0,0,0,.43-1.4,2,2,0,0,0-.43-1.38,1.46,1.46,0,0,0-1.13-.5,1.44,1.44,0,0,0-1.12.5,2,2,0,0,0-.44,1.38,2.06,2.06,0,0,0,.44,1.4,1.44,1.44,0,0,0,1.12.5A1.46,1.46,0,0,0,1144.41,1010.13Z" transform="translate(-1082.95 -985)"/><path d="M1152.46,1013.08a5,5,0,0,1-2-1.77,5,5,0,0,1,0-5.15,4.9,4.9,0,0,1,2-1.76,6.78,6.78,0,0,1,5.75,0,4.87,4.87,0,0,1,2,1.76,5,5,0,0,1,0,5.15,5,5,0,0,1-2,1.77,6.78,6.78,0,0,1-5.75,0Zm4-3a2.06,2.06,0,0,0,.44-1.4,2,2,0,0,0-.44-1.38,1.44,1.44,0,0,0-1.12-.5,1.46,1.46,0,0,0-1.13.5,2,2,0,0,0-.44,1.38,2.06,2.06,0,0,0,.44,1.4,1.46,1.46,0,0,0,1.13.5A1.44,1.44,0,0,0,1156.45,1010.13Z" transform="translate(-1082.95 -985)"/><path d="M1166.9,1010.59l-.64.69v2.26h-4v-13h4v6.21l2.76-2.79h4.69l-4,4.16,4.29,5.44h-4.8Z" transform="translate(-1082.95 -985)"/><path d="M1192.72,1001.25l-4.1,12.29h-1.85l-3.35-9.81-3.36,9.81h-1.87l-4.11-12.29h1.81l3.31,10,3.46-10h1.62l3.39,10,3.39-10Z" transform="translate(-1082.95 -985)"/><path d="M1199.62,1005.1a3.67,3.67,0,0,1,1,2.83v5.61H1199v-1.23a2.64,2.64,0,0,1-1.2,1,4.56,4.56,0,0,1-1.85.34,3.83,3.83,0,0,1-2.5-.76,2.4,2.4,0,0,1-.94-2,2.44,2.44,0,0,1,.89-2,4.42,4.42,0,0,1,2.85-.75H1199v-.33a2.11,2.11,0,0,0-.64-1.67,2.64,2.64,0,0,0-1.86-.58,5,5,0,0,0-1.61.27,4.1,4.1,0,0,0-1.34.73l-.7-1.27a5.18,5.18,0,0,1,1.72-.88,7.08,7.08,0,0,1,2.13-.31A4.24,4.24,0,0,1,1199.62,1005.1Zm-1.68,6.82a2.45,2.45,0,0,0,1-1.22v-1.3h-2.6c-1.43,0-2.14.48-2.14,1.44a1.31,1.31,0,0,0,.54,1.11,2.49,2.49,0,0,0,1.51.4A3.12,3.12,0,0,0,1197.94,1011.92Z" transform="translate(-1082.95 -985)"/><path d="M1211.18,1004.24l-4.08,9.3h-1.72l-4.07-9.3h1.76l3.19,7.46,3.27-7.46Z" transform="translate(-1082.95 -985)"/><path d="M1220.22,1009.45h-7.55a2.89,2.89,0,0,0,1.08,2,3.5,3.5,0,0,0,2.29.74,3.46,3.46,0,0,0,2.69-1.12l.93,1.09a4,4,0,0,1-1.57,1.12,5.89,5.89,0,0,1-4.72-.22,4.22,4.22,0,0,1-1.76-1.69,4.84,4.84,0,0,1-.63-2.46,5,5,0,0,1,.61-2.44,4.31,4.31,0,0,1,1.67-1.69,4.67,4.67,0,0,1,2.39-.61,4.58,4.58,0,0,1,2.38.61,4.3,4.3,0,0,1,1.64,1.69,5.2,5.2,0,0,1,.58,2.49Q1220.25,1009.14,1220.22,1009.45Zm-6.59-3.14a2.94,2.94,0,0,0-1,1.93h6a3,3,0,0,0-1-1.92,2.88,2.88,0,0,0-2-.75A2.91,2.91,0,0,0,1213.63,1006.31Z" transform="translate(-1082.95 -985)"/><path class="a" d="M1099.87,1008.49a11.68,11.68,0,0,0,1.67,10.43,11.53,11.53,0,0,0,11.36,4.65A9.43,9.43,0,0,0,1117,1022c3-2.42,3.66-5.26,2.71-6.7s-2.17-2.23-5.78-1.32C1108.44,1015.39,1101.39,1012.36,1099.87,1008.49Z" transform="translate(-1082.95 -985)"/><path class="b" d="M1104.12,1002.62a11.64,11.64,0,0,1,11.42-1.3c2.24-7-3.89-9.78-6.27-8.71.39-2.38-.88-5.08-4.38-5.89a8.29,8.29,0,0,0-7.3,1.94,2.74,2.74,0,0,0-1.54-3.39c-1.89-.88-4,.69-4,.69a22,22,0,0,0,18,39.14,20.14,20.14,0,0,0,6.79-3,11.65,11.65,0,0,1-12.69-19.51Z" transform="translate(-1082.95 -985)"/></svg>